<svg xmlns="http://www.w3.org/2000/svg" viewBox="0 0 1200 675" fill="none" role="img" aria-label="Writing docs that read well">
  <defs>
    <linearGradient id="bgw" x1="0" y1="0" x2="1200" y2="675" gradientUnits="userSpaceOnUse">
      <stop stop-color="#0f3b34"/><stop offset="1" stop-color="#2f8f6f"/>
    </linearGradient>
    <radialGradient id="gloww" cx="0.8" cy="0.25" r="0.85">
      <stop stop-color="#ffffff" stop-opacity="0.22"/><stop offset="1" stop-color="#ffffff" stop-opacity="0"/>
    </radialGradient>
  </defs>
  <rect width="1200" height="675" fill="url(#bgw)"/>
  <rect width="1200" height="675" fill="url(#gloww)"/>
  <!-- document -->
  <rect x="408" y="138" width="384" height="430" rx="22" fill="#ffffff" transform="rotate(-4 600 353)"/>
  <g transform="rotate(-4 600 353)" fill="#0f3b34">
    <rect x="452" y="192" width="210" height="26" rx="7"/>
    <rect x="452" y="252" width="296" height="13" rx="6" fill-opacity="0.28"/>
    <rect x="452" y="284" width="296" height="13" rx="6" fill-opacity="0.28"/>
    <rect x="452" y="316" width="240" height="13" rx="6" fill-opacity="0.28"/>
    <rect x="452" y="372" width="296" height="13" rx="6" fill-opacity="0.28"/>
    <rect x="452" y="404" width="270" height="13" rx="6" fill-opacity="0.28"/>
    <rect x="452" y="436" width="180" height="13" rx="6" fill-opacity="0.28"/>
    <rect x="452" y="492" width="120" height="22" rx="7" fill="#10b981"/>
  </g>
  <!-- pen nib -->
  <g transform="translate(792 432) rotate(38)">
    <rect x="-16" y="-150" width="32" height="150" rx="10" fill="#ffd27a"/>
    <path d="M-16 0 L16 0 L0 44 Z" fill="#1f2937"/>
    <rect x="-3" y="-2" width="6" height="34" fill="#374151"/>
  </g>
</svg>
